<svg width="1600" height="1200" viewBox="0 0 1600 1200" fill="none" xmlns="http://www.w3.org/2000/svg">
  <rect width="1600" height="1200" fill="url(#sky)"/>
  <circle cx="1240" cy="190" r="88" fill="#FFF6D6" fill-opacity="0.9"/>
  <path d="M0 820C178 744 312 715 454 709C585 703 706 735 845 717C1004 697 1103 615 1270 618C1394 620 1502 664 1600 718V1200H0V820Z" fill="url(#haze)"/>
  <path d="M0 954C182 894 350 881 520 905C674 926 794 986 959 982C1122 978 1258 914 1420 908C1499 905 1556 915 1600 930V1200H0V954Z" fill="#C9D7DA" fill-opacity="0.72"/>
  <g opacity="0.86">
    <rect x="95" y="698" width="1410" height="360" rx="32" fill="#617785" fill-opacity="0.18"/>
    <rect x="136" y="724" width="242" height="254" rx="16" fill="#7A8F9A" fill-opacity="0.32"/>
    <rect x="412" y="676" width="106" height="330" rx="18" fill="#5B7280" fill-opacity="0.42"/>
    <rect x="444" y="498" width="42" height="196" rx="12" fill="#5A6F7B" fill-opacity="0.5"/>
    <rect x="448" y="430" width="34" height="78" rx="10" fill="#677E8A" fill-opacity="0.52"/>
    <rect x="596" y="616" width="252" height="378" rx="24" fill="#6C818E" fill-opacity="0.34"/>
    <rect x="642" y="490" width="56" height="128" rx="16" fill="#627887" fill-opacity="0.44"/>
    <rect x="734" y="448" width="54" height="168" rx="16" fill="#5A7180" fill-opacity="0.42"/>
    <rect x="906" y="724" width="240" height="260" rx="16" fill="#7A8D97" fill-opacity="0.28"/>
    <rect x="978" y="560" width="50" height="180" rx="15" fill="#607684" fill-opacity="0.44"/>
    <rect x="1084" y="502" width="50" height="228" rx="15" fill="#586E7B" fill-opacity="0.44"/>
    <rect x="1208" y="654" width="250" height="328" rx="20" fill="#6F8491" fill-opacity="0.26"/>
    <path d="M320 800H1260" stroke="#9CB3BF" stroke-opacity="0.48" stroke-width="12" stroke-linecap="round"/>
    <path d="M250 870H1110" stroke="#B4C8D1" stroke-opacity="0.42" stroke-width="10" stroke-linecap="round"/>
    <path d="M1080 868H1350" stroke="#B4C8D1" stroke-opacity="0.42" stroke-width="10" stroke-linecap="round"/>
    <path d="M498 470C538 506 550 556 544 614" stroke="#DCE8ED" stroke-opacity="0.4" stroke-width="8" stroke-linecap="round"/>
    <path d="M992 612C1030 646 1044 694 1038 740" stroke="#DCE8ED" stroke-opacity="0.38" stroke-width="8" stroke-linecap="round"/>
  </g>
  <g opacity="0.34">
    <ellipse cx="342" cy="602" rx="118" ry="34" fill="#FFFFFF"/>
    <ellipse cx="702" cy="534" rx="126" ry="40" fill="#FFFFFF"/>
    <ellipse cx="1016" cy="592" rx="136" ry="42" fill="#FFFFFF"/>
  </g>
  <defs>
    <linearGradient id="sky" x1="800" y1="0" x2="800" y2="1200" gradientUnits="userSpaceOnUse">
      <stop stop-color="#EFF7FB"/>
      <stop offset="0.46" stop-color="#DCEAF0"/>
      <stop offset="1" stop-color="#C2D4DD"/>
    </linearGradient>
    <linearGradient id="haze" x1="800" y1="709" x2="800" y2="1200" gradientUnits="userSpaceOnUse">
      <stop stop-color="#E8F0F3" stop-opacity="0"/>
      <stop offset="1" stop-color="#EEF4F7" stop-opacity="0.86"/>
    </linearGradient>
  </defs>
</svg>
